<?xml version="1.0" encoding="UTF-8" standalone="no"?>
<svg
   xmlns:dc="http://purl.org/dc/elements/1.1/"
   xmlns:cc="http://creativecommons.org/ns#"
   xmlns:rdf="http://www.w3.org/1999/02/22-rdf-syntax-ns#"
   xmlns:svg="http://www.w3.org/2000/svg"
   xmlns="http://www.w3.org/2000/svg"
   xmlns:sodipodi="http://sodipodi.sourceforge.net/DTD/sodipodi-0.dtd"
   xmlns:inkscape="http://www.inkscape.org/namespaces/inkscape"
   version="1.1"
   width="40.005913"
   height="39.006107"
   viewBox="0 0 40.005598 39.005801"
   enable-background="new 0 0 76.01 76.01"
   xml:space="preserve"
   id="svg3006"
   inkscape:version="0.48.4 r9939"
   sodipodi:docname="appbar.calendar.svg"><metadata
   id="metadata3014"><rdf:RDF><cc:Work
       rdf:about=""><dc:format>image/svg+xml</dc:format><dc:type
         rdf:resource="http://purl.org/dc/dcmitype/StillImage" /></cc:Work></rdf:RDF></metadata><defs
   id="defs3012" /><sodipodi:namedview
   pagecolor="#ffffff"
   bordercolor="#666666"
   borderopacity="1"
   objecttolerance="10"
   gridtolerance="10"
   guidetolerance="10"
   inkscape:pageopacity="0"
   inkscape:pageshadow="2"
   inkscape:window-width="640"
   inkscape:window-height="480"
   id="namedview3010"
   showgrid="false"
   fit-margin-top="0"
   fit-margin-left="0"
   fit-margin-right="0"
   fit-margin-bottom="0"
   inkscape:zoom="3.1048302"
   inkscape:cx="20.002657"
   inkscape:cy="19.003249"
   inkscape:window-x="641"
   inkscape:window-y="307"
   inkscape:window-maximized="0"
   inkscape:current-layer="svg3006" />
	<path
   d="m 0,39.0058 0,-34.0049 5.0007,0 0,-3.0004 C 5.0008,0.8957 5.8963,2e-4 7.001,2e-4 l 4.0005,0 c 1.1047,0 2.0002,0.8955 2.0003,2.0001 l 0,3.0006 14.002,0 -10e-5,-3.0006 C 27.0037,0.8955 27.8993,0 29.004,0 l 4.0006,0 c 1.1047,0 2.0003,0.8955 2.0003,2.0003 l 0,3.0006 5.0007,0 0,34.0049 -40.0056,0 z m 3.0004,-3.0004 34.0047,0 0,-23.0033 -34.0047,0 0,23.0033 z m 2.0003,-7.0011 6.0008,0 0,5.0007 -6.0008,0 0,-5.0007 z m 8.0011,0 6.0008,0 0,5.0007 -6.0008,0 0,-5.0007 z m 8.0011,0 6.0009,0 0,5.0007 -6.0009,0 0,-5.0007 z m 8.0011,0 6.0009,0 0,5.0007 -6.0009,0 0,-5.0007 z m -24.0033,-7.001 6.0008,0 0,5.0007 -6.0008,0 0,-5.0007 z m 8.0011,0 6.0008,0 0,5.0007 -6.0008,0 0,-5.0007 z m 8.0011,0 6.0009,0 0,5.0007 -6.0009,0 0,-5.0007 z m 8.0011,0 6.0009,0 0,5.0007 -6.0009,0 0,-5.0007 z m -16.0022,-7.0008 6.0008,0 0,5.0007 -6.0008,0 0,-5.0007 z m 8.0011,0 6.0009,0 0,5.0007 -6.0009,0 0,-5.0007 z m 8.0011,0 6.0009,0 0,5.0007 -6.0009,0 0,-5.0007 z m 1.5002,-13.002 c -0.8285,0 -1.5002,0.6717 -1.5002,1.5003 l 0,3.0004 c 0,0.8285 0.6717,1.5002 1.5002,1.5002 l 1.0002,0 c 0.8285,0 1.5002,-0.6717 1.5002,-1.5002 l 0,-3.0004 c 0,-0.8286 -0.6717,-1.5003 -1.5002,-1.5003 l -1.0002,0 z m -22.003,0 c -0.8286,0 -1.5002,0.6717 -1.5002,1.5002 l 0,3.0004 c 0,0.8286 0.6716,1.5003 1.5002,1.5003 l 1.0001,0 c 0.8286,0 1.5002,-0.6717 1.5002,-1.5003 l 0,-3.0004 c 0,-0.8285 -0.6716,-1.5002 -1.5002,-1.5002 l -1.0001,0 z"
   id="path3008"
   inkscape:connector-curvature="0"
   style="fill:#000000;fill-opacity:1;stroke-width:0.2;stroke-linejoin:round" />
</svg>